<svg width="81" height="34" viewBox="0 0 81 34" fill="none" xmlns="http://www.w3.org/2000/svg">
<g clip-path="url(#clip0)">
<path d="M64.2386 12.8075L0.00146484 22.9717L0.270942 24.7199L64.5081 14.5557L64.2386 12.8075Z" fill="white"/>
<path d="M15.7843 21.2556C16.4254 25.5112 14.3473 30.9315 11.1197 31.3794C7.93628 31.8274 4.5318 27.3478 3.93491 23.2266C3.31592 18.9934 5.43819 13.6179 8.68792 13.1924C11.8713 12.7668 15.1653 17.224 15.7843 21.2556Z" fill="white"/>
<path d="M61.9165 14.5927C62.8008 20.3714 59.75 27.7851 55.0634 28.457C50.4651 29.1066 45.6016 23.0367 44.8057 17.4149C43.9657 11.6586 47.0827 4.31209 51.7473 3.68495C56.3456 3.0802 61.0544 9.10524 61.9165 14.5927Z" fill="white"/>
<path d="M19.1891 19.419C21.0903 25.2424 16.89 32.5441 12.7781 32.8577C11.9159 32.9249 10.8106 32.7233 9.46204 31.7378C10.1252 31.8946 11.4296 32.1186 12.7781 31.5138C14.5466 30.7299 15.2541 29.0053 15.8731 27.4822C16.8679 25.0632 16.8016 22.9354 16.7573 22.3307C16.7131 21.6364 16.47 18.4111 14.1045 15.6113C13.596 15.0066 12.6454 13.9091 11.0095 13.1476C10.1474 12.7444 9.3515 12.5652 8.79883 12.4756C9.37361 12.386 10.2358 12.3188 11.2306 12.4756C14.834 13.0132 18.0838 15.9921 19.1891 19.419Z" fill="white"/>
<path d="M22.8367 18.9934C24.34 24.0777 22.5051 31.1331 17.6416 33.3281C15.4751 34.3136 13.3086 34.0224 12.1148 33.776C12.9328 33.6864 14.3698 33.3953 15.8288 32.4321C17.8627 31.0883 18.7248 29.274 19.2333 28.1542C19.6312 27.303 20.5597 25.1976 20.405 22.3979C20.3607 21.4572 20.0512 17.8063 17.2216 14.8946C15.8509 13.5059 14.414 12.8116 13.6181 12.4756C11.4958 11.6021 9.59464 11.6469 8.64404 11.7589C8.88722 11.6469 9.17461 11.5349 9.50622 11.4453C10.0368 11.2661 10.9653 10.975 12.0927 10.8854C13.2644 10.7958 14.1487 10.9974 14.7898 11.1542C15.0551 11.2213 16.7794 11.6245 18.3932 12.6996C21.5324 14.7602 22.6599 18.3663 22.8367 18.9934Z" fill="white"/>
</g>
<defs>
<clipPath id="clip0">
<rect width="81" height="34" fill="white"/>
</clipPath>
</defs>
</svg>
