<svg width="72" height="30" viewBox="0 0 72 30" fill="none" xmlns="http://www.w3.org/2000/svg">
<g clip-path="url(#clip0)">
<path d="M54.4156 11.7225L0.0012207 20.2691L0.240756 21.8116L54.6551 13.265L54.4156 11.7225Z" fill="black"/>
<path d="M14.0306 18.7549C14.6004 22.5099 12.7533 27.2925 9.88429 27.6877C7.05459 28.083 4.02839 24.1304 3.49782 20.4941C2.9476 16.7589 4.83407 12.0158 7.72271 11.6403C10.5524 11.2648 13.4804 15.1976 14.0306 18.7549Z" fill="black"/>
<path d="M51.3312 12.6616C52.1172 17.7605 49.4054 24.302 45.2395 24.8948C41.1522 25.468 36.829 20.1122 36.1216 15.1518C35.3749 10.0727 38.1456 3.5905 42.2919 3.03714C46.3792 2.50354 50.5648 7.81974 51.3312 12.6616Z" fill="black"/>
<path d="M17.0567 17.1344C18.7467 22.2727 15.0131 28.7154 11.358 28.9921C10.5917 29.0514 9.60913 28.8735 8.41044 28.0039C8.99996 28.1423 10.1594 28.3399 11.358 27.8063C12.9301 27.1146 13.5589 25.5929 14.1091 24.249C14.9934 22.1146 14.9345 20.2372 14.8952 19.7036C14.8559 19.0909 14.6397 16.2451 12.5371 13.7747C12.0851 13.2411 11.2401 12.2727 9.78599 11.6008C9.01961 11.2451 8.31219 11.087 7.82092 11.0079C8.33184 10.9289 9.09822 10.8696 9.98249 11.0079C13.1856 11.4822 16.0742 14.1107 17.0567 17.1344Z" fill="black"/>
<path d="M20.2991 16.7589C21.6353 21.2451 20.0043 27.4704 15.6812 29.4071C13.7554 30.2767 11.8296 30.0198 10.7685 29.8024C11.4956 29.7233 12.7729 29.4664 14.0698 28.6166C15.8777 27.4308 16.644 25.83 17.096 24.8419C17.4497 24.0909 18.2751 22.2332 18.1375 19.7628C18.0982 18.9328 17.8231 15.7115 15.3078 13.1423C14.0895 11.917 12.8122 11.3043 12.1047 11.0079C10.2183 10.2371 8.52833 10.2767 7.68335 10.3755C7.89951 10.2767 8.15497 10.1779 8.44973 10.0988C8.92134 9.9407 9.74667 9.68379 10.7489 9.60473C11.7903 9.52568 12.5764 9.70355 13.1462 9.84189C13.382 9.90118 14.9148 10.2569 16.3493 11.2055C19.1397 13.0237 20.1419 16.2055 20.2991 16.7589Z" fill="black"/>
</g>
<defs>
<clipPath id="clip0">
<rect width="72" height="30" fill="white"/>
</clipPath>
</defs>
</svg>
